# xmcd
#
# Track frame offsets:
#	150
#	18998
#	32294
#	52790
#	80305
#	111282
#	132847
#	149054
#	167959
#	194260
#	216109
#	235445
#	258617
#	272818
#	277362
#	293508
#	311404
#
# Disc length: 4445 seconds
#
# Revision: 0
# Processed by: cddbd v1.4PL0 Copyright (c) Steve Scherf et al.
# Submitted via: dBpowerAMP V4.0
#
DISCID=fd115b11
DTITLE=The Wu-Tang Clan - Enter the Wu-Tang:36 Chambers
DYEAR=1900
DGENRE=Hip-Hop
TTITLE0=Bring Da Ruckus
TTITLE1=Shame On A Nigga
TTITLE2=Clan In Da Front
TTITLE3=Wu-Tang: 7th Chamber
TTITLE4=Can It All Be So Simple
TTITLE5=Da Mystery Of Chess Boxing
TTITLE6=Wu-Tang Clan Ain't Nuthing Ta F'Wit
TTITLE7=C.R.E.A.M
TTITLE8=Method Man
TTITLE9=Protect Ya Neck
TTITLE10=Tearz
TTITLE11=Wu-Tang: 7th Chamber - Part II
TTITLE12=Bonus Track - Method Man (Remix) Skunk Mix
TTITLE13=Conclusion
TTITLE14=I Can't Go To Sleep (Feat Isaac Hayes)
TTITLE15=Protect Ya Neck (The Jump Off)
TTITLE16=Gravel Pit
EXTD=
EXTT0=
EXTT1=
EXTT2=
EXTT3=
EXTT4=
EXTT5=
EXTT6=
EXTT7=
EXTT8=
EXTT9=
EXTT10=
EXTT11=
EXTT12=
EXTT13=
EXTT14=
EXTT15=
EXTT16=
PLAYORDER=
